<svg xmlns="http://www.w3.org/2000/svg" width="100" height="100" viewBox="0 0 100 100">
<path rx="0" ry="0" d="M0,50L49.993,0L100,50L49.993,100L0,50ZL0,50ZZ" style="fill: rgb(226 0 26);"/>
<path rx="0" ry="0" d="M45.676,25.509C46.095,27.088,47.163,28.415,48.616,29.163L29.163,48.616C28.415,47.163,27.088,46.095,25.509,45.676C23.716,45.168,21.863,44.904,20,44.891L20,55.109C21.863,55.096,23.716,54.832,25.509,54.324C27.076,53.933,28.403,52.895,29.163,51.47L48.616,70.852C47.163,71.599,46.095,72.927,45.676,74.505C45.169,76.293,44.904,78.141,44.891,80L55.124,80C55.109,78.141,54.84,76.292,54.324,74.505C53.933,72.938,52.895,71.611,51.47,70.852L70.852,51.399C71.611,52.824,72.938,53.861,74.505,54.253C76.293,54.76,78.141,55.024,80,55.038L80,44.891C78.141,44.904,76.293,45.169,74.505,45.676C72.922,46.087,71.592,47.157,70.852,48.616L51.384,29.163C52.843,28.422,53.913,27.092,54.324,25.509C54.84,23.718,55.109,21.864,55.124,20L44.891,20C44.905,21.863,45.169,23.716,45.676,25.509ZZ" style="fill: rgb(255 237 0);"/>
</svg>
