<svg xmlns="http://www.w3.org/2000/svg" width="230" height="200" viewBox="0 0 230 200">
  <path d="M32 50v30S11.032 71.783 1.177 65C-7.212 59.226 32 50 32 50Z" fill="rgb(0 0 0)"/>
  <path d="M228.074 100c11.083-4.486-26.256 100-96.853 100-36.75 0-61.32-10.208-81.191-49.566C42.733 135.982 30 100 30 63.37 30 15.921 56.067 0 82.795 0c26.727 0 42.221 20.822 48.426 50 5.733 26.954 19.187 81.432 96.853 50Z" fill="rgb(200 150 100)"/>
  <path d="M70 20c14.086 0 20 8.962 20 20 0 5.864.278 10.636-3.748 14.295C82.699 57.524 75.174 60 70 60c-11.038 0-20-8.962-20-20s8.962-20 20-20Z" fill="rgb(250 250 250)"/>
  <path d="M65 30c5.519 0 10 3.957 10 10 0 5.519-4.481 10-10 10s-10-3.431-10-10c0-5.519 4.481-10 10-10Z" fill="rgb(0 0 0)"/>
  <path d="M84.817 170.851c-9.236-8.819-23.693-42.351 20.833-74.785 48.692-35.469 76.454-39.387 76.454-34.207 0 6.634-8.233 29.673-8.233 29.673S215 75.743 215 81.162c0 10.37-17.677 62.006-46.753 83.486-27.378 20.226-70.562 18.49-83.43 6.203Z" fill="rgb(200 200 200)"/>
</svg>