<svg xmlns="http://www.w3.org/2000/svg" width="200" height="200" viewBox="0 0 200 200">
  <circle cx="100" cy="100" r="100" fill="rgb(0 0 0)"/>
  <path d="M160.501 104.352c4.062-.995 8.466-2.425 13.243-4.352 7.228-2.916-17.124 65-63.165 65-23.967 0-39.991-6.635-52.951-32.218-4.053-8-10.676-26.149-12.553-46.064-2.908-1.202-13.784-5.679-19.308-9.468-4.872-3.342 14.879-8.465 19.258-9.545C47.891 43.425 63.269 35 78.997 35c17.43 0 27.535 13.534 31.582 32.5.982 4.602 2.312 10.44 4.657 16.175 18.397-10.195 28.528-10.985 28.528-8.466 0 4.311-5.37 19.287-5.37 19.287s26.823-10.263 26.823-6.741c0 2.541-1.638 8.895-4.716 16.597Z" fill="rgb(200 150 100)"/>
</svg>
